<?xml version="1.0"?>
<svg xmlns="http://www.w3.org/2000/svg" xmlns:xlink="http://www.w3.org/1999/xlink" xmlns:svgjs="http://svgjs.com/svgjs" version="1.1" width="512" height="512" x="0" y="0" viewBox="0 0 64 64" style="enable-background:new 0 0 512 512" xml:space="preserve" class=""><g><g xmlns="http://www.w3.org/2000/svg"><circle cx="40" cy="6" r="1" fill="#dfddc7" data-original="#000000" style="" class=""/><path d="m43 5h6v2h-6z" fill="#dfddc7" data-original="#000000" style="" class=""/><path d="m47 53h-6c-1.103 0-2 .897-2 2 0 2.206 1.794 4 4 4h2c2.206 0 4-1.794 4-4 0-1.103-.897-2-2-2zm-2 4h-2c-1.103 0-2-.897-2-2h6c0 1.103-.897 2-2 2z" fill="#dfddc7" data-original="#000000" style="" class=""/><path d="m57 53h-2c-1.103 0-2 .897-2 2v1c0 1.654 1.346 3 3 3s3-1.346 3-3v-1c0-1.103-.897-2-2-2zm0 3c0 .552-.448 1-1 1s-1-.448-1-1v-1h2z" fill="#dfddc7" data-original="#000000" style="" class=""/><path d="m33 53h-2c-1.103 0-2 .897-2 2v1c0 1.654 1.346 3 3 3s3-1.346 3-3v-1c0-1.103-.897-2-2-2zm0 3c0 .552-.448 1-1 1s-1-.448-1-1v-1h2z" fill="#dfddc7" data-original="#000000" style="" class=""/><path d="m5.651 27.272-.379 1.515c-.18.722-.272 1.467-.272 2.213s.092 1.491.272 2.213l.379 1.516c.334 1.336 1.532 2.271 2.911 2.271h2.438v-12h-2.438c-1.379 0-2.577.935-2.911 2.272zm3.349 7.728h-.438c-.46 0-.858-.312-.971-.757l-.379-1.516c-.141-.563-.212-1.144-.212-1.727s.071-1.164.212-1.728l.379-1.515c.112-.445.511-.757.971-.757h.438z" fill="#dfddc7" data-original="#000000" style="" class=""/><path d="m49 45h2v2h-2z" fill="#dfddc7" data-original="#000000" style="" class=""/><path d="m45 45h2v2h-2z" fill="#dfddc7" data-original="#000000" style="" class=""/><path d="m53 45h2v2h-2z" fill="#dfddc7" data-original="#000000" style="" class=""/><path d="m58 1h-28c-2.757 0-5 2.243-5 5v7.503c-2.347.983-4 3.302-4 6.001 0 .392.035.784.105 1.163l1.151 6.333h-2.001l-9.915-5.409c-.709-.386-1.511-.591-2.319-.591h-.178c-2.437 0-4.459 1.809-4.794 4.155-1.19.398-2.049 1.523-2.049 2.845v6c0 1.322.859 2.446 2.049 2.846.335 2.345 2.357 4.154 4.794 4.154h.178c.808 0 1.609-.204 2.318-.591l9.916-5.409h3.456l.483 2.659c.142.78.42 1.505.806 2.155v18.186c0 2.757 2.243 5 5 5h28c2.757 0 5-2.243 5-5v-52c0-2.757-2.243-5-5-5zm-21.497 23.581c-.941-.548-1.503-1.513-1.503-2.581 0-1.654 1.346-3 3-3s3 1.346 3 3c0 1.068-.562 2.033-1.503 2.581l-.497.289v2.13h-2v-2.13zm.497 10.419h2v2h-2zm2-6v4h-18v-4zm-20 4.406-9.618 5.247c-.416.227-.887.347-1.361.347h-.178c-1.568 0-2.843-1.275-2.843-2.843v-1.157h-1c-.552 0-1-.448-1-1v-6c0-.551.448-1 1-1h1v-1.158c0-1.567 1.275-2.842 2.843-2.842h.178c.475 0 .945.12 1.361.347l9.618 5.247zm16 1.594v4h6v-13.021c1.246-.939 2-2.416 2-3.979 0-2.757-2.243-5-5-5s-5 2.243-5 5c0 1.563.754 3.041 2 3.979v1.021h-10.712l-1.216-6.692c-.048-.262-.072-.533-.072-.804 0-2.483 2.021-4.504 4.504-4.504h20.992c2.483 0 4.504 2.021 4.504 4.504 0 .271-.024.542-.072.806l-3.091 16.992c-.389 2.142-2.253 3.698-4.431 3.698h-4.406v3.586c0 .338-.468.531-.707.293l-3.879-3.879h-5.82c-2.178 0-4.042-1.556-4.432-3.698l-.418-2.302zm-4 8h4.586l3.293 3.293c.449.449 1.071.707 1.707.707 1.331 0 2.414-1.083 2.414-2.414v-1.586h2.406c3.146 0 5.837-2.246 6.398-5.341l3.09-16.99c.071-.381.106-.773.106-1.165 0-3.587-2.918-6.504-6.504-6.504h-17.496v-6h4.219l.433 1.728c.333 1.337 1.531 2.272 2.91 2.272h10.877c1.379 0 2.576-.935 2.91-2.272l.432-1.728h4.219v42h-26zm30 15c0 1.654-1.346 3-3 3h-28c-1.654 0-3-1.346-3-3v-16.108c.606.404 1.278.703 2 .886v6.222c0 1.103.897 2 2 2h26c1.103 0 2-.897 2-2v-42c0-1.103-.897-2-2-2h-5.781l-.81 3.242c-.112.446-.511.758-.971.758h-10.876c-.46 0-.858-.312-.971-.758l-.81-3.242h-5.781c-1.103 0-2 .897-2 2v6h-1.496c-.17 0-.337.013-.504.026v-7.026c0-1.654 1.346-3 3-3h28c1.654 0 3 1.346 3 3z" fill="#dfddc7" data-original="#000000" style="" class=""/><circle cx="26" cy="18" r="1" fill="#dfddc7" data-original="#000000" style="" class=""/><circle cx="50" cy="18" r="1" fill="#dfddc7" data-original="#000000" style="" class=""/><circle cx="46" cy="38" r="1" fill="#dfddc7" data-original="#000000" style="" class=""/></g></g></svg>
